<svg aria-hidden="true" style="position: absolute; width: 0; height: 0; overflow: hidden;" version="1.1" xmlns="http://www.w3.org/2000/svg" xmlns:xlink="http://www.w3.org/1999/xlink">
<defs>
<symbol id="icon-baseline-menu" viewBox="0 0 24 24">
<path d="M3 18h18v-2h-18v2zM3 13h18v-2h-18v2zM3 6v2h18v-2h-18z"></path>
</symbol>
<symbol id="icon-group-slim" viewBox="0 0 159 24">
<path fill="#212121" style="fill: var(--color1, #212121)" d="M0 20.372l1.093-1.267c1.288 1.183 2.561 2.044 3.818 2.582 1.257 0.528 2.704 0.792 4.341 0.792 1.69 0 3.068-0.428 4.135-1.283s1.6-1.954 1.6-3.295c0-0.845-0.174-1.547-0.523-2.107-0.338-0.56-0.982-1.067-1.933-1.521-0.94-0.454-2.26-0.855-3.96-1.204-2.735-0.56-4.7-1.336-5.893-2.329-1.183-1.003-1.774-2.376-1.774-4.119 0-1.7 0.692-3.121 2.075-4.261s3.126-1.711 5.228-1.711c1.605 0 3.005 0.222 4.198 0.665 1.193 0.433 2.387 1.13 3.58 2.091l-1.061 1.331c-1.046-0.908-2.117-1.563-3.216-1.964-1.088-0.401-2.276-0.602-3.564-0.602-1.648 0-2.983 0.417-4.008 1.251-1.024 0.824-1.537 1.859-1.537 3.105 0 0.855 0.169 1.568 0.507 2.139 0.349 0.56 1.009 1.083 1.98 1.568 0.982 0.475 2.355 0.892 4.119 1.251 2.63 0.539 4.531 1.304 5.703 2.297 1.183 0.993 1.774 2.334 1.774 4.024 0 1.816-0.708 3.306-2.123 4.467-1.415 1.151-3.221 1.727-5.418 1.727-1.785 0-3.411-0.296-4.879-0.887-1.457-0.591-2.878-1.505-4.261-2.741z"></path>
<path fill="#212121" style="fill: var(--color1, #212121)" d="M24.679 23.683v-23.683h1.584v23.683h-1.584z"></path>
<path fill="#212121" style="fill: var(--color1, #212121)" d="M35.163 2.82v-2.17h1.964v2.17h-1.964zM35.353 23.683v-16.539h1.584v16.539h-1.584z"></path>
<path fill="#212121" style="fill: var(--color1, #212121)" d="M45.79 23.683v-16.539h1.6v2.947c0.306-0.486 0.613-0.908 0.919-1.267s0.676-0.702 1.109-1.030c0.444-0.338 0.956-0.597 1.537-0.776 0.591-0.18 1.241-0.269 1.949-0.269 1.352 0 2.492 0.333 3.422 0.998 0.94 0.655 1.658 1.51 2.154 2.566 1.384-2.376 3.374-3.564 5.972-3.564 1.954 0 3.501 0.628 4.642 1.885s1.711 2.931 1.711 5.022v10.028h-1.584v-9.838c0-1.774-0.433-3.158-1.299-4.15s-2.065-1.489-3.596-1.489c-1.457 0-2.693 0.528-3.707 1.584s-1.521 2.477-1.521 4.261v9.632h-1.584v-9.933c0-1.711-0.438-3.063-1.315-4.055-0.866-0.993-2.038-1.489-3.517-1.489s-2.73 0.576-3.755 1.727c-1.024 1.141-1.537 2.545-1.537 4.214v9.537h-1.6z"></path>
<path fill="#fc842d" style="fill: var(--color2, #fc842d)" d="M79.192 22.805v-22.717h1.584l9.125 13.434 9.109-13.434h1.6v22.717h-1.695v-19.723l-8.982 13.069h-0.127l-8.998-13.069v19.723h-1.616z"></path>
<path fill="#fc842d" style="fill: var(--color2, #fc842d)" d="M108.465 14.536c0-1.151 0.216-2.255 0.65-3.311s1.019-1.975 1.758-2.756c0.739-0.792 1.642-1.42 2.709-1.885 1.067-0.475 2.202-0.713 3.406-0.713 1.595 0 3.042 0.396 4.341 1.188 1.31 0.782 2.323 1.838 3.042 3.168 0.729 1.32 1.093 2.756 1.093 4.309 0 1.542-0.364 2.973-1.093 4.293s-1.753 2.382-3.073 3.184c-1.309 0.792-2.767 1.188-4.372 1.188-1.193 0-2.318-0.232-3.374-0.697s-1.954-1.088-2.693-1.869c-0.739-0.782-1.325-1.7-1.758-2.756-0.422-1.067-0.634-2.181-0.634-3.343zM110.176 14.536c0 1.996 0.655 3.691 1.964 5.085 1.32 1.383 2.936 2.075 4.848 2.075 1.204 0 2.324-0.317 3.359-0.951 1.035-0.644 1.859-1.515 2.471-2.614s0.919-2.297 0.919-3.596c0-1.985-0.665-3.675-1.996-5.069-1.331-1.405-2.936-2.107-4.816-2.107-1.225 0-2.355 0.322-3.39 0.966-1.035 0.634-1.853 1.505-2.455 2.614-0.602 1.098-0.903 2.297-0.903 3.596z"></path>
<path fill="#fc842d" style="fill: var(--color2, #fc842d)" d="M132.938 22.805v-16.539h1.6v2.947c0.306-0.486 0.612-0.908 0.919-1.267s0.676-0.702 1.109-1.030c0.444-0.338 0.956-0.597 1.537-0.776 0.591-0.18 1.241-0.269 1.948-0.269 1.352 0 2.492 0.333 3.422 0.998 0.94 0.655 1.658 1.51 2.154 2.566 1.384-2.376 3.374-3.564 5.972-3.564 1.953 0 3.501 0.628 4.641 1.885 1.141 1.257 1.712 2.931 1.712 5.022v10.028h-1.584v-9.838c0-1.774-0.434-3.158-1.299-4.15-0.867-0.993-2.065-1.489-3.597-1.489-1.457 0-2.692 0.528-3.706 1.584s-1.521 2.477-1.521 4.261v9.632h-1.584v-9.933c0-1.711-0.438-3.063-1.315-4.055-0.866-0.993-2.038-1.489-3.517-1.489s-2.73 0.576-3.754 1.727c-1.024 1.141-1.537 2.545-1.537 4.214v9.537h-1.6z"></path>
</symbol>
</defs>
</svg>
